<svg width="56" height="50" viewBox="0 0 56 50" fill="none" xmlns="http://www.w3.org/2000/svg">
<path d="M17.9625 0.249865C21.2075 -0.217635 24.645 3.32986 25.635 8.22486C26.625 13.0924 24.8375 17.4374 21.5925 17.9324C18.375 18.4274 14.91 14.8799 13.8925 9.98486C12.875 5.11736 14.7175 0.772365 17.9625 0.249865ZM37.625 0.249865C40.8975 0.772365 42.7125 5.11736 41.75 9.98486C40.705 14.8799 37.2675 18.4274 34.0225 17.9324C30.75 17.4374 28.9625 13.0924 29.98 8.22486C30.97 3.32986 34.4075 -0.217635 37.625 0.249865ZM3.24999 12.8999C6.38499 11.5524 10.6475 13.9999 12.875 18.2624C14.965 22.6074 14.25 27.1724 11.1425 28.5199C8.03499 29.8674 3.79999 27.4474 1.62749 23.1299C-0.545013 18.8124 0.224987 14.2199 3.24999 12.8999ZM52.75 12.8999C55.775 14.2199 56.545 18.8124 54.3725 23.1299C52.2 27.4474 47.965 29.8674 44.8575 28.5199C41.75 27.1724 41.035 22.6074 43.125 18.2624C45.3525 13.9999 49.615 11.5524 52.75 12.8999ZM48.1575 42.5449C48.2675 45.1299 46.2875 47.9899 43.9225 49.0624C39 51.3174 33.17 46.6424 27.6975 46.6424C22.225 46.6424 16.34 51.5099 11.5 49.0624C8.74999 47.7149 6.85249 44.1399 7.20999 41.1699C7.70499 37.0724 12.6275 34.8724 15.5425 31.8749C19.42 27.9974 22.17 20.7099 27.6975 20.7099C33.1975 20.7099 36.1125 27.8874 39.825 31.8749C42.8775 35.2299 47.965 38.0624 48.1575 42.5449Z" fill="#4B392A"/>
</svg>
