<svg width="91" height="81" viewBox="0 0 91 81" fill="none" xmlns="http://www.w3.org/2000/svg">
<path d="M10.7917 80.625C8.06458 80.625 5.73086 79.7527 3.7905 78.008C1.85014 76.2633 0.878306 74.1634 0.875 71.7083V9.29167C0.875 6.83958 1.84683 4.74119 3.7905 2.9965C5.73417 1.25181 8.06789 0.377972 10.7917 0.375H80.2083C82.9354 0.375 85.2708 1.24883 87.2145 2.9965C89.1581 4.74417 90.1283 6.84256 90.125 9.29167V71.7083C90.125 74.1604 89.1548 76.2603 87.2145 78.008C85.2741 79.7556 82.9387 80.628 80.2083 80.625H10.7917ZM15.75 62.7917H75.25L56.6562 40.5L41.7812 58.3333L30.625 44.9583L15.75 62.7917Z" fill="#4B392A"/>
</svg>
