<svg width="46" height="42" viewBox="0 0 46 42" fill="none" xmlns="http://www.w3.org/2000/svg">
<path d="M42.4222 42L26.3222 27.3C25.0444 28.2333 23.575 28.9722 21.9139 29.5167C20.2528 30.0611 18.4852 30.3333 16.6111 30.3333C11.9685 30.3333 8.03978 28.8649 4.82489 25.928C1.61 22.9911 0.00170506 19.404 1.35215e-06 15.1667C-0.00170235 10.9293 1.60659 7.34222 4.82489 4.40533C8.04319 1.46844 11.9719 0 16.6111 0C21.2503 0 25.1799 1.46844 28.3999 4.40533C31.6199 7.34222 33.2273 10.9293 33.2222 15.1667C33.2222 16.8778 32.9241 18.4917 32.3278 20.0083C31.7315 21.525 30.9222 22.8667 29.9 24.0333L46 38.7333L42.4222 42ZM16.6111 25.6667C19.8056 25.6667 22.5213 24.6462 24.7582 22.6053C26.9952 20.5644 28.1128 18.0849 28.1111 15.1667C28.1094 12.2484 26.9918 9.76967 24.7582 7.73033C22.5247 5.691 19.809 4.66978 16.6111 4.66667C13.4133 4.66356 10.6984 5.68478 8.46656 7.73033C6.23471 9.77589 5.11622 12.2547 5.11111 15.1667C5.106 18.0787 6.22448 20.5582 8.46656 22.6053C10.7086 24.6524 13.4235 25.6729 16.6111 25.6667Z" fill="black"/>
</svg>
